<svg width="28" height="36" viewBox="0 0 28 36" fill="none" xmlns="http://www.w3.org/2000/svg">
<path d="M14.8921 0.801646C14.7925 0.649732 14.6576 0.525173 14.4993 0.439024C14.341 0.352875 14.1642 0.3078 13.9847 0.3078C13.8052 0.3078 13.6284 0.352875 13.4701 0.439024C13.3118 0.525173 13.1769 0.649732 13.0773 0.801646L6.53355 10.7845C6.42425 10.9515 6.36156 11.1456 6.35213 11.346C6.3427 11.5464 6.3869 11.7457 6.48002 11.9226C6.57313 12.0994 6.71168 12.2473 6.8809 12.3505C7.05012 12.4536 7.24367 12.5081 7.44095 12.5082H7.65471L3.24421 19.6848C3.14103 19.8527 3.08392 20.0456 3.07881 20.2435C3.0737 20.4415 3.12078 20.6372 3.21515 20.8104C3.30953 20.9835 3.44776 21.1279 3.61551 21.2284C3.78325 21.3289 3.97438 21.3819 4.16906 21.3819H4.58568L1.01279 28.6494C0.929467 28.8185 0.890051 29.0065 0.898287 29.1954C0.906522 29.3844 0.962135 29.5681 1.05984 29.729C1.15754 29.89 1.2941 30.0228 1.45651 30.115C1.61893 30.2071 1.80183 30.2555 1.98781 30.2555H11.8035V35.8016H16.166V30.2555H25.9816C26.1676 30.2555 26.3505 30.2071 26.5129 30.115C26.6753 30.0228 26.8119 29.89 26.9096 29.729C27.0073 29.5681 27.0629 29.3844 27.0711 29.1954C27.0794 29.0065 27.04 28.8185 26.9566 28.6494L23.3859 21.3819H23.8026C23.9972 21.3819 24.1884 21.3289 24.3561 21.2284C24.5239 21.1279 24.6621 20.9835 24.7565 20.8104C24.8508 20.6372 24.8979 20.4415 24.8928 20.2435C24.8877 20.0456 24.8306 19.8527 24.7274 19.6848L20.3147 12.5082H20.5285C20.7258 12.5081 20.9193 12.4536 21.0885 12.3505C21.2578 12.2473 21.3963 12.0994 21.4894 11.9226C21.5825 11.7457 21.6267 11.5464 21.6173 11.346C21.6079 11.1456 21.5452 10.9515 21.4359 10.7845L14.8921 0.801646ZM10.5754 10.8622C10.4812 10.6889 10.3431 10.5445 10.1755 10.4438C10.0079 10.3432 9.81685 10.29 9.6222 10.2898H9.47824L13.9847 3.41494L18.4912 10.2898H18.3472C18.1525 10.2898 17.9614 10.3428 17.7937 10.4433C17.6259 10.5438 17.4877 10.6881 17.3933 10.8613C17.2989 11.0345 17.2519 11.2302 17.257 11.4281C17.2621 11.6261 17.3192 11.819 17.4224 11.9869L21.8329 19.1635H21.6191C21.4331 19.1635 21.2502 19.2118 21.0878 19.304C20.9254 19.3961 20.7889 19.529 20.6911 19.6899C20.5934 19.8509 20.5378 20.0346 20.5296 20.2235C20.5214 20.4125 20.5608 20.6005 20.6441 20.7696L24.2148 28.0371H3.75244L7.32534 20.7696C7.40866 20.6005 7.44808 20.4125 7.43984 20.2235C7.43161 20.0346 7.37599 19.8509 7.27829 19.6899C7.18058 19.529 7.04403 19.3961 6.88162 19.304C6.7192 19.2118 6.5363 19.1635 6.35032 19.1635H6.13656L10.5471 11.9869C10.65 11.819 10.7069 11.6262 10.7119 11.4284C10.7168 11.2307 10.6697 11.0352 10.5754 10.8622Z" fill="black"/>
</svg>
