<svg width="24" height="24" viewBox="0 0 24 24" fill="none" xmlns="http://www.w3.org/2000/svg">
<path d="M22.1458 0.540619C22.0378 0.540619 21.9271 0.560838 21.8163 0.607054L5.44556 7.29679H0.787679C0.537744 7.29679 0.333252 7.51054 0.333252 7.77628V16.4129C0.333252 16.6786 0.537744 16.8924 0.787679 16.8924H3.67613C3.57104 17.2274 3.51424 17.5827 3.51424 17.9438C3.51424 19.8473 5.04225 21.3955 6.92244 21.3955C8.4959 21.3955 9.82226 20.3094 10.2142 18.8421L21.8191 23.585C21.9299 23.6283 22.0407 23.6514 22.1486 23.6514C22.6286 23.6514 23.0574 23.2413 23.0574 22.6924V1.4996C23.0546 0.950784 22.6286 0.540619 22.1458 0.540619ZM6.92244 19.3245C6.1698 19.3245 5.55916 18.7063 5.55916 17.9438C5.55916 17.6203 5.66993 17.3112 5.87158 17.0657L8.28289 18.0506C8.22608 18.7612 7.63817 19.3245 6.92244 19.3245ZM21.0097 21.0113L6.20672 14.9628L5.84034 14.8126H2.37817V9.37651H5.84034L6.20672 9.2263L21.0097 3.17781V21.0113Z" fill="black"/>
</svg>
