<svg width="43" height="37" viewBox="0 0 43 37" fill="none" xmlns="http://www.w3.org/2000/svg">
<path d="M30.4583 33.9166V30.8333H35.8333V26.2083H39.4166V31.6041C39.4166 32.2208 39.0583 32.6833 38.5208 33.1458C37.9833 33.6083 37.2666 33.9166 36.7291 33.9166H30.4583ZM12.5416 33.9166H6.27075C5.55409 33.9166 5.01659 33.6083 4.47909 33.1458C3.94159 32.6833 3.58325 32.0666 3.58325 31.6041V26.2083H7.16659V30.8333H12.5416V33.9166ZM30.4583 3.08331H36.7291C37.4458 3.08331 37.9833 3.39165 38.5208 3.85415C39.0583 4.31665 39.4166 4.77915 39.4166 5.39581V10.7916H35.8333V6.16665H30.4583V3.08331ZM12.5416 3.08331V6.16665H7.16659V10.7916H3.58325V5.39581C3.58325 4.77915 3.94159 4.31665 4.47909 3.85415C5.01659 3.39165 5.55409 3.08331 6.27075 3.08331H12.5416ZM34.0416 16.9583H8.95825V20.0416H34.0416V16.9583Z" fill="black"/>
</svg>
