<svg width="141" height="114" viewBox="0 0 141 114" fill="none" xmlns="http://www.w3.org/2000/svg">
<path d="M56.1235 81.7499L76.4198 87.2499C76.4198 87.2499 127.16 78.9999 133.926 78.9999C140.691 78.9999 140.691 84.4999 133.926 89.9999C127.16 95.4999 103.481 112 83.1852 112C62.8889 112 49.358 103.75 35.8272 103.75H2" stroke="black" stroke-width="4" stroke-linecap="round" stroke-linejoin="round"/>
<path d="M2 70.75C8.76543 65.25 22.2963 57 35.8272 57C49.358 57 81.4938 68 86.5679 73.5C91.642 79 76.4198 87.25 76.4198 87.25" stroke="black" stroke-width="4" stroke-linecap="round" stroke-linejoin="round"/>
<path d="M103.482 59.75C109.086 59.75 113.63 56.0563 113.63 51.5C113.63 46.9437 109.086 43.25 103.482 43.25C97.877 43.25 93.3335 46.9437 93.3335 51.5C93.3335 56.0563 97.877 59.75 103.482 59.75Z" stroke="black" stroke-width="4"/>
<path d="M62.8889 40.5C68.4935 40.5 73.037 36.8063 73.037 32.25C73.037 27.6937 68.4935 24 62.8889 24C57.2842 24 52.7407 27.6937 52.7407 32.25C52.7407 36.8063 57.2842 40.5 62.8889 40.5Z" stroke="black" stroke-width="4"/>
<path d="M103.481 18.5C109.086 18.5 113.63 14.8063 113.63 10.25C113.63 5.69365 109.086 2 103.481 2C97.8767 2 93.3333 5.69365 93.3333 10.25C93.3333 14.8063 97.8767 18.5 103.481 18.5Z" stroke="black" stroke-width="4"/>
</svg>
