<svg width="30" height="30" viewBox="0 0 30 30" fill="none" xmlns="http://www.w3.org/2000/svg">
<g clip-path="url(#clip0_404_432)">
<path d="M26.8345 11.3541C27.2906 10.1222 27.4223 8.9475 27.0947 7.89328C26.9437 7.90688 26.7872 7.91391 26.6269 7.91391C21.8259 7.91391 13.3406 1.87781 12.6984 0.9375C10.0523 4.79203 4.50607 7.75547 1.99919 11.0789C0.984819 12.4237 0.477632 13.4245 1.48685 14.963L12.0567 28.5441C12.5334 29.1895 13.4676 29.242 14.1328 28.6467C14.1328 28.6467 22.8009 17.5238 29.0629 14.0822C28.5923 13.163 27.809 12.2456 26.8345 11.3541ZM11.8725 25.6659L11.8284 25.6964L11.7886 25.7311C11.627 25.876 11.4835 26.0398 11.3611 26.2191L2.20263 14.452C1.5431 13.4316 1.73013 12.8944 2.70091 11.6081C3.80201 10.1489 5.56169 8.73234 7.42498 7.23281C9.36185 5.67375 11.3569 4.06875 12.8222 2.2425C15.2409 4.23281 22.0064 8.62734 26.384 8.78812C26.909 13.943 16.2206 22.6331 11.8725 25.6659Z" fill="black"/>
<path d="M9.37171 6.63656L21.1866 15.8944L21.6075 15.5175L9.67921 6.36094L9.37171 6.63656ZM13.222 11.5645L8.3864 7.51828C8.3864 7.51828 6.70359 8.59266 4.66546 10.9491L8.95546 15.3844L13.222 11.5645ZM2.62781 13.1531L11.7534 24.338L13.4386 22.83L3.70921 11.7061C3.70921 11.7061 2.86125 12.165 2.62781 13.1531ZM12.8531 13.7944L18.1542 18.6084L19.8384 17.1005L14.3189 12.4823L12.8531 13.7944ZM9.92156 16.4189L14.7858 21.6239L16.4695 20.1164L11.3873 15.1069L9.92156 16.4189ZM13.058 5.04188L12.3431 7.04906L12.7912 7.37531L15.067 5.33766L14.6217 5.05734L13.0537 6.46125L13.747 4.50469L13.282 4.21125L11.1131 6.15281L11.5017 6.43547L13.058 5.04188ZM15.0056 8.99016L15.4397 8.60063L14.1155 7.65938L14.7159 7.12219L15.892 7.9275L16.3097 7.55297L15.1205 6.75891L15.6164 6.31547L16.9331 7.16719L17.3606 6.78516L15.54 5.63578L13.2347 7.69969L15.0056 8.99016ZM16.4161 10.0177L18.2156 8.92781L18.8048 8.55469L18.4139 9.06L17.2561 10.6308L17.8153 11.0381L21.2784 9.25734L20.6212 8.8425L18.7223 9.92906L18.2377 10.2225L18.563 9.79453L19.6884 8.25375L19.0566 7.85531L17.3011 8.94328L16.8347 9.23813L17.1558 8.82984L18.2189 7.32656L17.6264 6.9525L15.9103 9.64922L16.4161 10.0177ZM22.9252 10.1742C22.4991 9.90656 22.1011 9.77859 21.7289 9.78609C21.3595 9.79406 21.0567 9.90516 20.8181 10.1189C20.5561 10.3533 20.468 10.5966 20.5542 10.8487C20.6048 11.0002 20.7661 11.2191 21.0412 11.5088L21.3258 11.8078C21.4955 11.9841 21.6047 12.1284 21.6525 12.2391C21.6994 12.3511 21.6764 12.4491 21.5841 12.5316C21.4261 12.6727 21.2203 12.6994 20.9677 12.6131C20.8106 12.5535 20.6626 12.4723 20.528 12.3717C20.2608 12.1814 20.1309 11.9981 20.1342 11.8214C20.1361 11.7248 20.1891 11.6142 20.2927 11.4895L19.6781 11.0611C19.4011 11.3091 19.2961 11.5856 19.3655 11.8927C19.4353 12.2025 19.673 12.5081 20.0855 12.8091C20.4966 13.1105 20.9058 13.2717 21.308 13.2895C21.7144 13.3069 22.0491 13.2 22.3069 12.968C22.56 12.742 22.65 12.4992 22.5778 12.2409C22.5319 12.0755 22.403 11.8828 22.1948 11.6634L21.7284 11.1713C21.5508 10.9856 21.4448 10.8567 21.4087 10.7831C21.3525 10.6711 21.3727 10.5722 21.4697 10.4859C21.5752 10.3913 21.7102 10.3528 21.8752 10.3692C22.0425 10.3856 22.2169 10.4527 22.3992 10.5698C22.5647 10.6767 22.6814 10.7873 22.7466 10.9017C22.8473 11.0742 22.8192 11.2406 22.6645 11.3986L23.3569 11.8547C23.6447 11.5772 23.7347 11.2833 23.6273 10.9744C23.5223 10.6683 23.2875 10.4011 22.9252 10.1742Z" fill="black"/>
</g>
<defs>
<clipPath id="clip0_404_432">
<rect width="30" height="30" fill="white"/>
</clipPath>
</defs>
</svg>
