<svg width="38" height="37" viewBox="0 0 38 37" fill="none" xmlns="http://www.w3.org/2000/svg">
<path d="M25.3333 16.9583H23.75V4.62501C23.75 2.92917 22.325 1.54167 20.5833 1.54167H17.4167C15.675 1.54167 14.25 2.92917 14.25 4.62501V16.9583H12.6667C8.29667 16.9583 4.75 20.4117 4.75 24.6667V35.4583H33.25V24.6667C33.25 20.4117 29.7033 16.9583 25.3333 16.9583ZM17.4167 4.62501H20.5833V16.9583H17.4167V4.62501ZM30.0833 32.375H26.9167V27.75C26.9167 26.9021 26.2042 26.2083 25.3333 26.2083C24.4625 26.2083 23.75 26.9021 23.75 27.75V32.375H20.5833V27.75C20.5833 26.9021 19.8708 26.2083 19 26.2083C18.1292 26.2083 17.4167 26.9021 17.4167 27.75V32.375H14.25V27.75C14.25 26.9021 13.5375 26.2083 12.6667 26.2083C11.7958 26.2083 11.0833 26.9021 11.0833 27.75V32.375H7.91667V24.6667C7.91667 22.1229 10.0542 20.0417 12.6667 20.0417H25.3333C27.9458 20.0417 30.0833 22.1229 30.0833 24.6667V32.375Z" fill="black"/>
</svg>
