<svg width="30" height="28" viewBox="0 0 30 28" fill="none" xmlns="http://www.w3.org/2000/svg">
<g clip-path="url(#clip0_382_243)">
<path d="M10.7143 21.875C10.7143 22.3563 10.2321 22.75 9.64286 22.75C9.05357 22.75 8.57143 22.3563 8.57143 21.875V10.5C8.57143 10.0188 9.05357 9.625 9.64286 9.625C10.2321 9.625 10.7143 10.0188 10.7143 10.5V21.875ZM16.0714 21.875C16.0714 22.3563 15.5893 22.75 15 22.75C14.4107 22.75 13.9286 22.3563 13.9286 21.875V10.5C13.9286 10.0188 14.4107 9.625 15 9.625C15.5893 9.625 16.0714 10.0188 16.0714 10.5V21.875ZM21.4286 21.875C21.4286 22.3563 20.9464 22.75 20.3571 22.75C19.7679 22.75 19.2857 22.3563 19.2857 21.875V10.5C19.2857 10.0188 19.7679 9.625 20.3571 9.625C20.9464 9.625 21.4286 10.0188 21.4286 10.5V21.875ZM21.2612 1.36391L23.7188 4.375H28.3929C29.2835 4.375 30 4.96289 30 5.6875C30 6.41484 29.2835 7 28.3929 7H27.8571V23.625C27.8571 26.0422 25.4598 28 22.5 28H7.5C4.54152 28 2.14286 26.0422 2.14286 23.625V7H1.60714C0.719866 7 0 6.41484 0 5.6875C0 4.96289 0.719866 4.375 1.60714 4.375H6.28259L8.73884 1.36391C9.43527 0.511711 10.6071 0 11.8594 0H18.1406C19.3929 0 20.5647 0.511766 21.2612 1.36391ZM10.1451 4.375H19.8549L18.5826 2.81969C18.4821 2.69828 18.3147 2.625 18.1406 2.625H11.8594C11.6853 2.625 11.4576 2.69828 11.4174 2.81969L10.1451 4.375ZM5.35714 23.625C5.35714 24.593 6.31674 25.375 7.5 25.375H22.5C23.6853 25.375 24.6429 24.593 24.6429 23.625V7H5.35714V23.625Z" fill="black"/>
</g>
<defs>
<clipPath id="clip0_382_243">
<rect width="30" height="28" fill="white"/>
</clipPath>
</defs>
</svg>
