<svg width="151" height="105" viewBox="0 0 151 105" fill="none" xmlns="http://www.w3.org/2000/svg">
<g clip-path="url(#clip0_999_501)">
<path d="M37.75 59.0625C37.75 60.803 36.7557 62.4722 34.9858 63.7029C33.2159 64.9336 30.8155 65.625 28.3125 65.625C25.8095 65.625 23.4091 64.9336 21.6392 63.7029C19.8693 62.4722 18.875 60.803 18.875 59.0625C18.875 57.322 19.8693 55.6528 21.6392 54.4221C23.4091 53.1914 25.8095 52.5 28.3125 52.5C30.8155 52.5 33.2159 53.1914 34.9858 54.4221C36.7557 55.6528 37.75 57.322 37.75 59.0625V59.0625ZM132.125 59.0625C132.125 60.803 131.131 62.4722 129.361 63.7029C127.591 64.9336 125.19 65.625 122.688 65.625C120.185 65.625 117.784 64.9336 116.014 63.7029C114.244 62.4722 113.25 60.803 113.25 59.0625C113.25 57.322 114.244 55.6528 116.014 54.4221C117.784 53.1914 120.185 52.5 122.688 52.5C125.19 52.5 127.591 53.1914 129.361 54.4221C131.131 55.6528 132.125 57.322 132.125 59.0625V59.0625ZM56.625 52.5C54.122 52.5 51.7216 53.1914 49.9517 54.4221C48.1818 55.6528 47.1875 57.322 47.1875 59.0625C47.1875 60.803 48.1818 62.4722 49.9517 63.7029C51.7216 64.9336 54.122 65.625 56.625 65.625H94.375C96.878 65.625 99.2784 64.9336 101.048 63.7029C102.818 62.4722 103.812 60.803 103.812 59.0625C103.812 57.322 102.818 55.6528 101.048 54.4221C99.2784 53.1914 96.878 52.5 94.375 52.5H56.625ZM45.8851 28.0613L36.8629 40.6219C36.494 41.1512 36.3322 41.7387 36.3938 42.3253C36.4554 42.9119 36.7383 43.4769 37.2138 43.9633C37.6894 44.4497 38.3409 44.8404 39.1028 45.0959C39.8646 45.3515 40.7098 45.463 41.5533 45.4191C50.1414 44.94 63.7314 44.3034 75.5 44.3034C87.2686 44.3034 100.868 44.94 109.447 45.4191C110.29 45.463 111.135 45.3515 111.897 45.0959C112.659 44.8404 113.311 44.4497 113.786 43.9633C114.262 43.4769 114.545 42.9119 114.606 42.3253C114.668 41.7387 114.506 41.1512 114.137 40.6219L105.115 28.0678C104.724 27.5222 104.122 27.0632 103.377 26.7421C102.632 26.421 101.773 26.2506 100.896 26.25H50.1037C49.2281 26.25 48.3698 26.4194 47.6247 26.7393C46.8797 27.0592 46.2774 27.5169 45.8851 28.0613V28.0613Z" fill="black"/>
<path fill-rule="evenodd" clip-rule="evenodd" d="M23.7826 23.0672C25.6031 20.1141 28.6306 17.5977 32.4893 15.8302C36.3481 14.0628 40.8682 13.1221 45.4888 13.125H105.53C114.968 13.125 123.499 17.0363 127.218 23.0672L134.692 35.1947C135.4 36.3431 136.674 37.2881 138.278 37.8459C142.997 39.4866 146.347 42.5381 147.386 46.1278L150.547 57.1463C150.859 58.2028 151.01 59.2791 151.01 60.3619V63.0722C151.01 68.4141 147.329 73.1981 141.572 76.1775V88.5938C141.572 89.464 141.075 90.2986 140.19 90.914C139.305 91.5293 138.105 91.875 136.853 91.875H117.978C116.727 91.875 115.527 91.5293 114.642 90.914C113.757 90.2986 113.26 89.464 113.26 88.5938V79.8131C101.066 80.1281 87.3536 80.3906 75.5095 80.3906C63.6655 80.3906 49.9528 80.1281 37.7595 79.8131V88.5938C37.7595 89.464 37.2624 90.2986 36.3774 90.914C35.4925 91.5293 34.2923 91.875 33.0408 91.875H14.1658C12.9143 91.875 11.714 91.5293 10.8291 90.914C9.94417 90.2986 9.44702 89.464 9.44702 88.5938V76.1775C3.69015 73.1981 0.00952148 68.4141 0.00952148 63.0722V60.3619C0.0111054 59.282 0.166002 58.2049 0.471959 57.1463L3.63352 46.1213C4.67165 42.5381 8.02196 39.48 12.7313 37.8459C14.3431 37.2858 15.6172 36.3464 16.327 35.1947L23.8015 23.0672H23.7826ZM45.4888 19.6875C42.717 19.6876 40.0062 20.2536 37.6927 21.3152C35.3792 22.3768 33.5648 23.8873 32.4745 25.6594L25 37.7803C23.4147 40.3598 20.5611 42.4627 16.9498 43.7128C15.9127 44.0741 15.008 44.5954 14.3047 45.2368C13.6014 45.8783 13.1181 46.623 12.8917 47.4141L9.72071 58.4325C9.53523 59.0676 9.4404 59.7139 9.43758 60.3619V63.0722C9.43758 68.296 15.2888 72.5747 22.7256 72.811C37.4009 73.2703 58.456 73.8281 75.5001 73.8281C92.5442 73.8281 113.599 73.2769 128.275 72.811C131.867 72.6909 135.255 71.6111 137.73 69.7967C140.206 67.9822 141.579 65.5733 141.563 63.0722V60.3619C141.563 59.7122 141.468 59.0691 141.279 58.4325L138.118 47.4075C137.89 46.6176 137.406 45.8742 136.703 45.234C136 44.5937 135.096 44.0735 134.06 43.7128C130.452 42.4594 127.6 40.3575 126.01 37.7803L118.535 25.6528C117.443 23.8809 115.626 22.3711 113.311 21.3106C110.996 20.2502 108.284 19.6858 105.511 19.6875H45.4888Z" fill="black"/>
</g>
<defs>
<clipPath id="clip0_999_501">
<rect width="151" height="105" fill="white"/>
</clipPath>
</defs>
</svg>
