<svg width="33" height="33" viewBox="0 0 33 33" fill="none" xmlns="http://www.w3.org/2000/svg">
<path d="M13.9507 4.46602C14.1562 3.95825 14.5086 3.5234 14.9627 3.21721C15.4169 2.91102 15.9522 2.74744 16.5 2.74744C17.0477 2.74744 17.583 2.91102 18.0372 3.21721C18.4914 3.5234 18.8438 3.95825 19.0492 4.46602C21.0825 5.02521 22.876 6.23641 24.1543 7.9136C25.4325 9.5908 26.1249 11.6412 26.125 13.75V20.2084L28.644 23.9869C28.7821 24.194 28.8615 24.4347 28.8736 24.6833C28.8856 24.9319 28.83 25.1792 28.7125 25.3987C28.5951 25.6182 28.4203 25.8017 28.2067 25.9296C27.9932 26.0575 27.7489 26.1251 27.5 26.125H21.2643C21.0988 27.2705 20.526 28.3181 19.6511 29.0757C18.7761 29.8333 17.6574 30.2503 16.5 30.2503C15.3425 30.2503 14.2239 29.8333 13.3489 29.0757C12.4739 28.3181 11.9011 27.2705 11.7356 26.125H5.49996C5.25103 26.1251 5.00675 26.0575 4.7932 25.9296C4.57965 25.8017 4.40482 25.6182 4.28738 25.3987C4.16995 25.1792 4.1143 24.9319 4.12638 24.6833C4.13845 24.4347 4.2178 24.194 4.35596 23.9869L6.87496 20.2084V13.75C6.87496 9.31702 9.87246 5.58252 13.9507 4.46602ZM14.5557 26.125C14.6977 26.5274 14.961 26.8759 15.3094 27.1223C15.6577 27.3688 16.0739 27.5011 16.5007 27.5011C16.9274 27.5011 17.3436 27.3688 17.6919 27.1223C18.0403 26.8759 18.3036 26.5274 18.4456 26.125H14.5543H14.5557ZM16.5 6.87502C14.6766 6.87502 12.9279 7.59935 11.6386 8.88866C10.3493 10.178 9.62496 11.9267 9.62496 13.75V20.625C9.62502 20.8966 9.54464 21.1622 9.39396 21.3881L8.06984 23.375H24.9287L23.6046 21.3881C23.4544 21.162 23.3745 20.8965 23.375 20.625V13.75C23.375 11.9267 22.6506 10.178 21.3613 8.88866C20.072 7.59935 18.3233 6.87502 16.5 6.87502Z" fill="black"/>
</svg>
