<svg width="33" height="33" viewBox="0 0 33 33" fill="none" xmlns="http://www.w3.org/2000/svg">
<path d="M19.4763 0.265625C19.7245 0.265633 19.9663 0.34372 20.1669 0.488641C20.3675 0.633563 20.5165 0.837839 20.5924 1.07205L21.882 5.04376C22.4237 5.30637 22.9419 5.60152 23.4366 5.93385L27.5541 5.05538C27.7968 5.00401 28.0498 5.03033 28.2765 5.13057C28.5032 5.23081 28.6919 5.39978 28.8156 5.61314L32.0654 11.1884C32.1895 11.4016 32.2421 11.6484 32.2155 11.8932C32.189 12.138 32.0847 12.368 31.9177 12.5503L29.0922 15.6412C29.1334 16.2339 29.1334 16.8287 29.0922 17.4214L31.9177 20.5169C32.0847 20.6991 32.189 20.9292 32.2155 21.174C32.2421 21.4187 32.1895 21.6655 32.0654 21.8788L28.8156 27.4564C28.6916 27.6693 28.5027 27.8378 28.276 27.9376C28.0494 28.0374 27.7966 28.0634 27.5541 28.0118L23.4366 27.1333C22.9442 27.4633 22.4237 27.7608 21.8844 28.0234L20.5924 31.9951C20.5165 32.2293 20.3675 32.4336 20.1669 32.5785C19.9663 32.7235 19.7245 32.8016 19.4763 32.8016H12.9766C12.7283 32.8016 12.4865 32.7235 12.286 32.5785C12.0854 32.4336 11.9364 32.2293 11.8604 31.9951L10.5732 28.0258C10.033 27.7639 9.51193 27.465 9.01388 27.131L4.89878 28.0118C4.65602 28.0632 4.40306 28.0369 4.17636 27.9366C3.94966 27.8364 3.7609 27.6674 3.63729 27.4541L0.387423 21.8788C0.263324 21.6655 0.21076 21.4187 0.237309 21.174C0.263858 20.9292 0.368149 20.6991 0.535144 20.5169L3.36061 17.4214C3.31968 16.8302 3.31968 16.237 3.36061 15.6458L0.535144 12.5503C0.368149 12.368 0.263858 12.138 0.237309 11.8932C0.21076 11.6484 0.263324 11.4016 0.387423 11.1884L3.63729 5.61081C3.76124 5.39788 3.95014 5.22939 4.17682 5.12958C4.4035 5.02978 4.65627 5.0038 4.89878 5.05538L9.01388 5.93617C9.51097 5.60384 10.0315 5.30405 10.5732 5.04144L11.8628 1.07205C11.9385 0.838594 12.0868 0.634858 12.2864 0.490007C12.486 0.345155 12.7268 0.266614 12.9742 0.265625H19.4739H19.4763ZM18.6181 2.58962H13.8347L12.5029 6.69612L11.6049 7.13071C11.1634 7.34483 10.7372 7.58865 10.3293 7.86044L9.49925 8.4182L5.24112 7.5072L2.84944 11.616L5.7687 14.8185L5.69835 15.8039C5.66466 16.2898 5.66466 16.7774 5.69835 17.2633L5.7687 18.2487L2.84475 21.4512L5.23878 25.56L9.4969 24.6513L10.327 25.2067C10.7349 25.4785 11.161 25.7224 11.6025 25.9365L12.5006 26.3711L13.8347 30.4776H18.6228L19.9593 26.3687L20.855 25.9365C21.296 25.7229 21.7215 25.479 22.1282 25.2067L22.9559 24.6513L27.2164 25.56L29.6081 21.4512L26.6865 18.2487L26.7568 17.2633C26.7906 16.7766 26.7906 16.2882 26.7568 15.8015L26.6865 14.8162L29.6104 11.616L27.2164 7.5072L22.9559 8.41355L22.1282 7.86044C21.7215 7.5881 21.2961 7.34426 20.855 7.13071L19.9593 6.69844L18.6204 2.58962H18.6181ZM16.2264 9.56161C18.092 9.56161 19.8813 10.2962 21.2005 11.6037C22.5197 12.9112 23.2608 14.6845 23.2608 16.5336C23.2608 18.3827 22.5197 20.156 21.2005 21.4635C19.8813 22.771 18.092 23.5056 16.2264 23.5056C14.3608 23.5056 12.5716 22.771 11.2524 21.4635C9.9332 20.156 9.19208 18.3827 9.19208 16.5336C9.19208 14.6845 9.9332 12.9112 11.2524 11.6037C12.5716 10.2962 14.3608 9.56161 16.2264 9.56161ZM16.2264 11.8856C14.9827 11.8856 13.7899 12.3753 12.9104 13.247C12.0309 14.1186 11.5369 15.3009 11.5369 16.5336C11.5369 17.7663 12.0309 18.9486 12.9104 19.8202C13.7899 20.6919 14.9827 21.1816 16.2264 21.1816C17.4702 21.1816 18.663 20.6919 19.5424 19.8202C20.4219 18.9486 20.916 17.7663 20.916 16.5336C20.916 15.3009 20.4219 14.1186 19.5424 13.247C18.663 12.3753 17.4702 11.8856 16.2264 11.8856Z" fill="black"/>
</svg>
