<svg width="30" height="30" viewBox="0 0 30 30" fill="none" xmlns="http://www.w3.org/2000/svg">
<g clip-path="url(#clip0_404_426)">
<path d="M25.5 9C24.125 9 23 10.125 23 11.5V14C23 15.375 24.125 16.5 25.5 16.5H28V19H23V21.5H28C29.375 21.5 30.5 20.375 30.5 19V16.5C30.5 15.125 29.375 14 28 14H25.5V11.5H30.5V9H25.5ZM13 9V21.5H18C19.375 21.5 20.5 20.375 20.5 19V11.5C20.5 10.125 19.375 9 18 9H13ZM15.5 11.5H18V19H15.5V11.5ZM5.5 9C4.125 9 3 10.125 3 11.5V21.5H5.5V16.5H8V21.5H10.5V11.5C10.5 10.125 9.375 9 8 9H5.5ZM5.5 11.5H8V14H5.5V11.5Z" fill="black"/>
</g>
<defs>
<clipPath id="clip0_404_426">
<rect width="30" height="30" fill="white"/>
</clipPath>
</defs>
</svg>
