<svg width="27" height="27" viewBox="0 0 27 27" fill="none" xmlns="http://www.w3.org/2000/svg">
    <path d="M3.36655 26.8016H23.6665C24.4357 26.8016 25.1733 26.5211 25.7171 26.0219C26.261 25.5227 26.5665 24.8456 26.5665 24.1397V12.161C26.5676 11.9858 26.5311 11.8122 26.4589 11.65C26.3867 11.4879 26.2804 11.3404 26.146 11.216L14.546 0.568309C14.2744 0.320416 13.9069 0.181274 13.5238 0.181274C13.1407 0.181274 12.7732 0.320416 12.5015 0.568309L0.901552 11.216C0.764545 11.3393 0.655548 11.4863 0.580878 11.6485C0.506208 11.8107 0.467349 11.9849 0.466553 12.161V24.1397C0.466553 24.8456 0.772087 25.5227 1.31594 26.0219C1.8598 26.5211 2.59742 26.8016 3.36655 26.8016ZM10.6165 24.1397V17.4848H16.4165V24.1397H10.6165ZM3.36655 12.7067L13.5165 3.38995L23.6665 12.7067V24.1397H19.3165V17.4848C19.3165 16.7789 19.011 16.1018 18.4671 15.6026C17.9233 15.1034 17.1857 14.8229 16.4165 14.8229H10.6165C9.84742 14.8229 9.10979 15.1034 8.56594 15.6026C8.02208 16.1018 7.71655 16.7789 7.71655 17.4848V24.1397H3.36655V12.7067Z" 
        fill="black"
    />
</svg>
