<svg width="30" height="25" viewBox="0 0 30 25" fill="none" xmlns="http://www.w3.org/2000/svg">
<g clip-path="url(#clip0_403_423)">
<path d="M21.8555 20.3926L15.953 17.6679C18.1467 16.2296 18.7425 13.4031 18.7425 11.8183V8.51946C18.7425 6.33508 15.2597 3.90227 11.7614 3.90227C8.26409 3.90227 4.68893 6.33547 4.68893 8.51946V11.8183C4.68893 13.2593 5.42062 16.1746 7.6369 17.6554L1.58203 20.3925C1.58203 20.3925 0 20.98 0 21.7124V23.6921C0 24.4207 0.709658 25.0121 1.58203 25.0121H21.8555C22.7287 25.0121 23.4384 24.4207 23.4384 23.6921V21.7125C23.4384 20.9359 21.8554 20.3925 21.8554 20.3925L21.8555 20.3926ZM21.5635 23.4496H1.87506V22.0527C2.00959 21.9711 2.19756 21.8766 2.34568 21.8199C2.38972 21.8031 2.43378 21.7855 2.4755 21.7656L8.53081 19.0289C9.083 18.7793 9.44909 18.3164 9.50487 17.7953C9.56065 17.2742 9.29956 16.7637 8.81018 16.4363C7.238 15.3859 6.5644 13.0594 6.5644 11.8184V8.51953C6.5644 7.39726 9.10315 5.46484 11.7619 5.46484C14.4699 5.46484 16.868 7.37073 16.868 8.51953V11.8184C16.868 13.0422 16.4119 15.3789 14.7942 16.4394C14.5504 16.5995 14.3579 16.8073 14.2341 17.0445C14.1103 17.2816 14.0589 17.5407 14.0846 17.7984C14.1107 18.056 14.213 18.3043 14.3823 18.5209C14.5516 18.7375 14.7827 18.9158 15.0549 19.0399L20.9574 21.7645C21.0094 21.7883 21.0755 21.8141 21.1304 21.834C21.2687 21.8828 21.4388 21.9644 21.5635 22.0363V23.4496V23.4496ZM28.4171 16.5023L22.4269 13.7777C24.6207 12.3394 25.3046 9.51286 25.3046 7.92807V4.62925C25.3046 2.44487 21.7341 -0.0125504 18.2358 -0.0125504C15.9624 -0.0125504 13.6379 1.01753 12.285 2.33669C13.0566 2.37651 13.9074 2.37732 14.6424 2.57263C15.63 1.93161 16.8797 1.55036 18.2358 1.55036C20.9438 1.55036 23.4295 3.48042 23.4295 4.62966V7.92849C23.4295 9.15229 22.8858 11.489 21.2682 12.5496C21.0243 12.7096 20.8319 12.9175 20.708 13.1546C20.5842 13.3918 20.5328 13.6508 20.5585 13.9086C20.5846 14.1662 20.6869 14.4144 20.8562 14.631C21.0255 14.8476 21.2566 15.0259 21.5288 15.15L27.519 17.8746C27.571 17.8984 27.6371 17.9242 27.6919 17.9441C27.8302 17.9929 28.0003 18.0746 28.125 18.1465V19.5359H24.3403C24.9117 19.8953 25.0847 20.4093 25.3065 21.0984H28.4176C29.2908 21.0984 30.0005 20.507 30.0005 19.7785V17.823C30 17.0457 28.4171 16.5023 28.4171 16.5023L28.4171 16.5023Z" fill="#050505"/>
</g>
<defs>
<clipPath id="clip0_403_423">
<rect width="30" height="25" fill="white"/>
</clipPath>
</defs>
</svg>
